<svg xmlns="http://www.w3.org/2000/svg" width="612" height="612"><path d="M306 0C136.992 0 0 136.992 0 306s136.992 306 306 306 306-137.012 306-306S475.008 0 306 0zm0 573.75C158.125 573.75 38.25 453.875 38.25 306S158.125 38.25 306 38.25 573.75 158.125 573.75 306 453.875 573.75 306 573.75zm16.811-354.501c-4.59-4.59-10.862-6.005-16.811-4.973-5.929-1.052-12.221.383-16.811 4.973l-146.44 146.44c-7.478 7.478-7.478 19.584 0 27.042 7.478 7.479 19.584 7.479 27.043 0L306 256.543l136.189 136.188c7.478 7.479 19.584 7.479 27.042 0 7.479-7.478 7.479-19.584 0-27.042l-146.42-146.44z"/></svg>